<?xml version="1.0" encoding="utf-8"?>
<!-- Generator: Adobe Illustrator 28.1.0, SVG Export Plug-In . SVG Version: 6.00 Build 0)  -->
<svg version="1.1" id="Layer_1" xmlns="http://www.w3.org/2000/svg" xmlns:xlink="http://www.w3.org/1999/xlink" x="0px" y="0px"
	 viewBox="0 0 100 16.411" style="enable-background:new 0 0 100 16.411;" xml:space="preserve">
<style type="text/css">
	.st0{fill:#FFFFFF;}
</style>
<g>
	<path class="st0" d="M14.794,13.971c-0.132-0.229-0.376-0.369-0.64-0.369H5.381c-1.496,0-2.72-1.224-2.72-2.72V5.529
		c0-1.496,1.224-2.72,2.72-2.72h8.772c0.264,0,0.508-0.141,0.64-0.37l1.066-1.848c0.114-0.197-0.029-0.443-0.256-0.443H5.381
		C2.409,0.148,0,2.557,0,5.529v5.352c0,2.972,2.409,5.381,5.381,5.381h10.224c0.228,0,0.37-0.246,0.256-0.444L14.794,13.971z"/>
	<path class="st0" d="M32.044,0h-8.013c-2.967,0-5.382,2.414-5.382,5.382v5.648c0,2.967,2.414,5.382,5.382,5.382h8.013
		c2.967,0,5.382-2.414,5.382-5.382V5.382C37.426,2.414,35.012,0,32.044,0z M34.765,11.029c0,1.5-1.22,2.72-2.72,2.72h-8.013
		c-1.5,0-2.72-1.22-2.72-2.72V5.382c0-1.5,1.22-2.72,2.72-2.72h8.013c1.5,0,2.72,1.22,2.72,2.72V11.029z"/>
	<path class="st0" d="M56.246,10.393c1.638-0.923,2.744-2.679,2.744-4.687V5.529c0-2.972-2.409-5.381-5.381-5.381H40.904
		c-0.228,0-0.37,0.246-0.256,0.444l1.068,1.848c0.132,0.229,0.376,0.369,0.64,0.369h11.253c1.502,0,2.72,1.221,2.72,2.72v0.177
		c0,1.499-1.218,2.72-2.72,2.72H42.314c-0.245,0-0.444,0.199-0.444,0.444v6.96c0,0.245,0.199,0.444,0.444,0.444h1.774
		c0.245,0,0.444-0.199,0.444-0.444v-4.388c0-0.196,0.159-0.355,0.355-0.355h8.485c0.127,0,0.244,0.068,0.307,0.177l2.716,4.702
		c0.106,0.183,0.301,0.296,0.512,0.296h2.219c0.228,0,0.37-0.247,0.256-0.444L56.246,10.393z"/>
	<path class="st0" d="M82.109,0.148h-2.031c-0.264,0-0.508,0.141-0.64,0.37l-7.356,12.739c-0.091,0.158-0.319,0.158-0.41,0
		L64.318,0.517c-0.132-0.229-0.376-0.37-0.64-0.37h-2.034c-0.273,0-0.444,0.296-0.307,0.532l8.785,15.213
		c0.132,0.229,0.376,0.37,0.64,0.37h2.233c0.264,0,0.508-0.141,0.64-0.37L82.417,0.68C82.553,0.444,82.382,0.148,82.109,0.148z"/>
	<path class="st0" d="M99.901,13.223L92.563,0.517c-0.132-0.229-0.376-0.37-0.64-0.37h-2.228c-0.264,0-0.508,0.141-0.64,0.37
		l-7.549,13.076c-0.132,0.229-0.132,0.51,0,0.739l1.014,1.759c0.136,0.237,0.478,0.237,0.615,0l7.47-12.94
		c0.091-0.158,0.319-0.158,0.41,0l5.826,10.095c0.091,0.158-0.023,0.355-0.205,0.355h-7.046c-0.211,0-0.407,0.113-0.512,0.296
		l-1.057,1.833c-0.136,0.237,0.034,0.532,0.307,0.532h9.816c0.264,0,0.508-0.141,0.64-0.369l1.116-1.931
		C100.033,13.734,100.033,13.452,99.901,13.223z"/>
</g>
</svg>
