<?xml version="1.0" encoding="utf-8"?>
<!-- Generator: Adobe Illustrator 24.3.0, SVG Export Plug-In . SVG Version: 6.00 Build 0)  -->
<svg version="1.1" id="Layer_1" xmlns="http://www.w3.org/2000/svg" xmlns:xlink="http://www.w3.org/1999/xlink" x="0px" y="0px"
	 viewBox="0 0 632.5 464.9" style="enable-background:new 0 0 632.5 464.9;" xml:space="preserve">
<style type="text/css">
	.st0{fill:url(#SVGID_1_);}
	.st1{fill:url(#SVGID_2_);}
	.st2{fill:url(#SVGID_3_);}
	.st3{fill:url(#SVGID_4_);}
	.st4{fill:url(#SVGID_5_);}
	.st5{fill:url(#SVGID_6_);}
	.st6{fill:url(#SVGID_7_);}
	.st7{fill:#FFFFFF;}
	.st8{fill:url(#SVGID_8_);}
	.st9{fill:url(#SVGID_9_);}
	.st10{fill:url(#SVGID_10_);}
	.st11{fill:url(#SVGID_11_);}
	.st12{fill:url(#SVGID_12_);}
	.st13{fill:url(#SVGID_13_);}
	.st14{fill:url(#SVGID_14_);}
	.st15{fill:url(#SVGID_15_);}
	.st16{fill:url(#SVGID_16_);}
	.st17{fill:url(#SVGID_17_);}
	.st18{fill:url(#SVGID_18_);}
	.st19{fill:url(#SVGID_19_);}
	.st20{fill:url(#SVGID_20_);}
	.st21{fill:url(#SVGID_21_);}
	.st22{fill:url(#SVGID_22_);}
	.st23{fill:url(#SVGID_23_);}
	.st24{fill:none;stroke:#000000;stroke-width:4;stroke-miterlimit:10;}
	.st25{fill:#FFFFFF;stroke:#FFFFFF;stroke-width:4;stroke-miterlimit:10;}
	.st26{fill:url(#SVGID_24_);}
	.st27{fill:url(#SVGID_25_);}
	.st28{fill:url(#SVGID_26_);}
	.st29{fill:url(#SVGID_27_);}
	.st30{fill:url(#SVGID_28_);}
	.st31{fill:url(#SVGID_29_);}
	.st32{fill:none;stroke:#FFFFFF;stroke-width:4;stroke-miterlimit:10;}
	.st33{fill:url(#SVGID_30_);}
	.st34{fill:url(#SVGID_31_);}
	.st35{fill:url(#SVGID_32_);}
	.st36{fill:url(#SVGID_33_);}
	.st37{fill:#FFFFFF;stroke:#4A4EA1;stroke-width:4;stroke-miterlimit:10;}
	.st38{fill:#F9F9FA;stroke:#5064AE;stroke-width:5;stroke-miterlimit:10;}
	.st39{fill:url(#SVGID_34_);}
	.st40{fill:url(#SVGID_35_);}
	.st41{fill:url(#SVGID_36_);}
	.st42{fill:url(#SVGID_37_);}
	.st43{fill:url(#SVGID_38_);}
	.st44{fill:url(#SVGID_39_);}
	.st45{fill:url(#SVGID_40_);}
	.st46{fill:url(#SVGID_41_);}
	.st47{fill:url(#SVGID_42_);}
	.st48{fill:url(#SVGID_43_);}
	.st49{fill:url(#SVGID_44_);}
	.st50{fill:url(#SVGID_45_);}
	.st51{fill:url(#SVGID_46_);}
	.st52{fill:url(#SVGID_47_);}
</style>
<g>
	<linearGradient id="SVGID_1_" gradientUnits="userSpaceOnUse" x1="6826.7095" y1="2062.5852" x2="7117.3618" y2="2062.5852">
		<stop  offset="0.1508" style="stop-color:#7F3F98"/>
		<stop  offset="1" style="stop-color:#00AEEF"/>
	</linearGradient>
	<polygon class="st0" points="6826.7,2047.4 7117.4,2047.4 7117.4,2077.7 6826.7,2077.7 	"/>
	<g>
		<linearGradient id="SVGID_2_" gradientUnits="userSpaceOnUse" x1="6087.8735" y1="2370.0974" x2="6479.9731" y2="2370.0974">
			<stop  offset="0" style="stop-color:#7F3F98"/>
			<stop  offset="1" style="stop-color:#00AEEF"/>
		</linearGradient>
		<path class="st1" d="M6111.1,2346.9H6480l-25.3,46.4h-343.6c-12.8,0-23.2-10.4-23.2-23.2c0-6.4,2.6-12.2,6.8-16.4
			C6098.9,2349.5,6104.7,2346.9,6111.1,2346.9z"/>
		<linearGradient id="SVGID_3_" gradientUnits="userSpaceOnUse" x1="6560.2935" y1="2370.0974" x2="6706.3135" y2="2370.0974">
			<stop  offset="0" style="stop-color:#7F3F98"/>
			<stop  offset="1" style="stop-color:#00AEEF"/>
		</linearGradient>
		<path class="st2" d="M6706.3,2370.1c0,6.4-2.6,12.2-6.8,16.4c-4.2,4.2-10,6.8-16.4,6.8h-122.8l25.3-46.4h97.5
			C6695.9,2346.9,6706.3,2357.3,6706.3,2370.1z"/>
	</g>
	<linearGradient id="SVGID_4_" gradientUnits="userSpaceOnUse" x1="5807.9692" y1="2582.842" x2="6098.6216" y2="2582.842">
		<stop  offset="0.1508" style="stop-color:#7F3F98"/>
		<stop  offset="1" style="stop-color:#00AEEF"/>
	</linearGradient>
	<rect x="5808" y="2567.7" class="st3" width="290.7" height="30.3"/>
	<g>
		<linearGradient id="SVGID_5_" gradientUnits="userSpaceOnUse" x1="5780.5" y1="1918.8339" x2="6625.832" y2="1918.8339">
			<stop  offset="0.1508" style="stop-color:#7F3F98"/>
			<stop  offset="1" style="stop-color:#00AEEF"/>
		</linearGradient>
		<path class="st4" d="M6579.5,1965.2h-752.6c-25.6,0-46.4-20.8-46.4-46.4v0c0-25.6,20.8-46.4,46.4-46.4h752.6
			c25.6,0,46.4,20.8,46.4,46.4v0C6625.8,1944.4,6605.1,1965.2,6579.5,1965.2z"/>
	</g>
	<g>
		<linearGradient id="SVGID_6_" gradientUnits="userSpaceOnUse" x1="6046.7383" y1="2328.438" x2="6139.4517" y2="2328.438">
			<stop  offset="0.1508" style="stop-color:#7F3F98"/>
			<stop  offset="1" style="stop-color:#00AEEF"/>
		</linearGradient>
		<path class="st5" d="M6046.7,2611.9V2045c0-25.6,20.8-46.4,46.4-46.4l0,0c25.6,0,46.4,20.8,46.4,46.4v566.9
			c0,25.6-20.8,46.4-46.4,46.4l0,0C6067.5,2658.3,6046.7,2637.5,6046.7,2611.9z"/>
	</g>
	<g>
		<linearGradient id="SVGID_7_" gradientUnits="userSpaceOnUse" x1="5688.9297" y1="1918.8339" x2="5849.4185" y2="1918.8339">
			<stop  offset="0.1508" style="stop-color:#7F3F98"/>
			<stop  offset="1" style="stop-color:#00AEEF"/>
		</linearGradient>
		<circle class="st6" cx="5769.2" cy="1918.8" r="80.2"/>
		<circle class="st7" cx="5769.2" cy="1918.8" r="45.2"/>
	</g>
	<g>
		<linearGradient id="SVGID_8_" gradientUnits="userSpaceOnUse" x1="6676.8574" y1="2370.1006" x2="6826.7095" y2="2370.1006">
			<stop  offset="0.1508" style="stop-color:#7F3F98"/>
			<stop  offset="1" style="stop-color:#00AEEF"/>
		</linearGradient>
		<circle class="st8" cx="6751.8" cy="2370.1" r="74.9"/>
		<circle class="st7" cx="6751.8" cy="2370.1" r="42.2"/>
	</g>
	<g>
		<linearGradient id="SVGID_9_" gradientUnits="userSpaceOnUse" x1="6702.1274" y1="2348.4539" x2="7227.2441" y2="2348.4539">
			<stop  offset="0.1508" style="stop-color:#7F3F98"/>
			<stop  offset="1" style="stop-color:#00AEEF"/>
		</linearGradient>
		<path class="st9" d="M7221.6,2722.5L6789.2,1930c-12.3-22.5-40.4-30.8-62.9-18.5l0,0c-22.5,12.3-30.8,40.4-18.5,62.9l432.4,792.6
			c12.3,22.5,40.4,30.8,62.9,18.5l0,0C7225.6,2773.2,7233.8,2745,7221.6,2722.5z"/>
	</g>
	<g>
		<linearGradient id="SVGID_10_" gradientUnits="userSpaceOnUse" x1="6341.8535" y1="2281.5474" x2="6795.0332" y2="2281.5474">
			<stop  offset="0.1508" style="stop-color:#7F3F98"/>
			<stop  offset="1" style="stop-color:#00AEEF"/>
		</linearGradient>
		<path class="st10" d="M6795,1951.2c0,7.5-1.8,15.1-5.7,22.2l-203.8,373.5l-25.3,46.4l-131.4,240.8c-12.3,22.5-40.4,30.8-62.9,18.5
			c-15.4-8.4-24.2-24.3-24.2-40.7c0-7.5,1.8-15.1,5.7-22.2l107.1-196.4l25.3-46.4l228-417.9c12.3-22.5,40.4-30.8,62.9-18.5
			C6786.3,1918.9,6795,1934.8,6795,1951.2z"/>
	</g>
	<linearGradient id="SVGID_11_" gradientUnits="userSpaceOnUse" x1="5756.9326" y1="2581.8958" x2="5872.7671" y2="2581.8958">
		<stop  offset="0.1508" style="stop-color:#7F3F98"/>
		<stop  offset="1" style="stop-color:#00AEEF"/>
	</linearGradient>
	<circle class="st11" cx="5814.9" cy="2581.9" r="57.9"/>
	<linearGradient id="SVGID_12_" gradientUnits="userSpaceOnUse" x1="7059.0059" y1="2063.5315" x2="7174.8403" y2="2063.5315">
		<stop  offset="0.1508" style="stop-color:#7F3F98"/>
		<stop  offset="1" style="stop-color:#00AEEF"/>
	</linearGradient>
	<circle class="st12" cx="7116.9" cy="2063.5" r="57.9"/>
	<g>
		<linearGradient id="SVGID_13_" gradientUnits="userSpaceOnUse" x1="7103.3804" y1="2749.7654" x2="7263.8691" y2="2749.7654">
			<stop  offset="0.1508" style="stop-color:#7F3F98"/>
			<stop  offset="1" style="stop-color:#00AEEF"/>
		</linearGradient>
		<circle class="st13" cx="7183.6" cy="2749.8" r="80.2"/>
		<circle class="st7" cx="7183.6" cy="2749.8" r="45.2"/>
	</g>
</g>
<g>
	<g>
		
			<linearGradient id="SVGID_14_" gradientUnits="userSpaceOnUse" x1="3243.9758" y1="5493.6963" x2="3534.6287" y2="5493.6963" gradientTransform="matrix(-1 0 0 -1 13221.459 8807.25)">
			<stop  offset="0" style="stop-color:#2CAAE2"/>
			<stop  offset="8.024669e-02" style="stop-color:#2FA3DC"/>
			<stop  offset="0.3563" style="stop-color:#378CCC"/>
			<stop  offset="0.6107" style="stop-color:#3B7DC0"/>
			<stop  offset="0.8334" style="stop-color:#3D74BA"/>
			<stop  offset="1" style="stop-color:#3D71B8"/>
		</linearGradient>
		<polyline class="st14" points="9686.8,3298.4 9977.5,3298.4 9977.5,3328.7 9686.8,3328.7 		"/>
		<linearGradient id="SVGID_15_" gradientUnits="userSpaceOnUse" x1="8894.8301" y1="3938.6963" x2="9126.5889" y2="3938.6963">
			<stop  offset="0" style="stop-color:#2CAAE2"/>
			<stop  offset="8.024669e-02" style="stop-color:#2FA3DC"/>
			<stop  offset="0.3563" style="stop-color:#378CCC"/>
			<stop  offset="0.6107" style="stop-color:#3B7DC0"/>
			<stop  offset="0.8334" style="stop-color:#3D74BA"/>
			<stop  offset="1" style="stop-color:#3D71B8"/>
		</linearGradient>
		<polyline class="st15" points="9126.6,3953.9 8894.8,3953.9 8894.8,3923.5 9126.6,3923.5 		"/>
		<linearGradient id="SVGID_16_" gradientUnits="userSpaceOnUse" x1="9717.0801" y1="3846.0713" x2="9949.2051" y2="3846.0713">
			<stop  offset="0" style="stop-color:#2CAAE2"/>
			<stop  offset="8.024669e-02" style="stop-color:#2FA3DC"/>
			<stop  offset="0.3563" style="stop-color:#378CCC"/>
			<stop  offset="0.6107" style="stop-color:#3B7DC0"/>
			<stop  offset="0.8334" style="stop-color:#3D74BA"/>
			<stop  offset="1" style="stop-color:#3D71B8"/>
		</linearGradient>
		<polyline class="st16" points="9949.2,3861.2 9717.1,3861.2 9717.1,3830.9 9949.2,3830.9 		"/>
		<linearGradient id="SVGID_17_" gradientUnits="userSpaceOnUse" x1="8787.5" y1="3242.3215" x2="9548.0498" y2="3242.3215">
			<stop  offset="0" style="stop-color:#2CAAE2"/>
			<stop  offset="8.024669e-02" style="stop-color:#2FA3DC"/>
			<stop  offset="0.3563" style="stop-color:#378CCC"/>
			<stop  offset="0.6107" style="stop-color:#3B7DC0"/>
			<stop  offset="0.8334" style="stop-color:#3D74BA"/>
			<stop  offset="1" style="stop-color:#3D71B8"/>
		</linearGradient>
		<path class="st17" d="M9548,3300.3h-686.7l0,0.3h-73.9c7.8-5.8,14.2-11.5,19.3-17.1c31.1-34.1,15.9-64.3,0-82.2
			c-9.5-10.8-19.3-17.1-19.3-17.1h644.4C9496,3184.1,9548,3236.1,9548,3300.3L9548,3300.3z"/>
		<linearGradient id="SVGID_18_" gradientUnits="userSpaceOnUse" x1="9073.2754" y1="3719.1223" x2="9206.3301" y2="3719.1223">
			<stop  offset="0" style="stop-color:#2CAAE2"/>
			<stop  offset="8.024669e-02" style="stop-color:#2FA3DC"/>
			<stop  offset="0.3563" style="stop-color:#378CCC"/>
			<stop  offset="0.6107" style="stop-color:#3B7DC0"/>
			<stop  offset="0.8334" style="stop-color:#3D74BA"/>
			<stop  offset="1" style="stop-color:#3D71B8"/>
		</linearGradient>
		<path class="st18" d="M9073.3,4103.1L9073.3,4103.1v-634.9c0-73.5,59.6-133.1,133.1-133.1l0,0v634.9
			C9206.3,4043.6,9146.8,4103.1,9073.3,4103.1z"/>
		<linearGradient id="SVGID_19_" gradientUnits="userSpaceOnUse" x1="9305.8428" y1="3635.2559" x2="10067.8184" y2="3635.2559">
			<stop  offset="0" style="stop-color:#2CAAE2"/>
			<stop  offset="8.024669e-02" style="stop-color:#2FA3DC"/>
			<stop  offset="0.3563" style="stop-color:#378CCC"/>
			<stop  offset="0.6107" style="stop-color:#3B7DC0"/>
			<stop  offset="0.8334" style="stop-color:#3D74BA"/>
			<stop  offset="1" style="stop-color:#3D71B8"/>
		</linearGradient>
		<path class="st19" d="M10005.5,4094L10005.5,4094c-2.9,1.4-6.3,0.1-7.7-2.8l-304.4-649.2c-2.1-4.4-8.4-4.4-10.5,0L9375.8,4097
			c-1.4,2.9-4.8,4.1-7.7,2.8l0,0c-54.1-25.4-77.4-89.8-52-143.9l309.1-659.2l57.7-123.2c0.6-1.2,1.5-2.1,2.7-2.7l0.1-0.1
			c1.5-0.7,3.3-0.7,4.8,0l0.1,0c1.2,0.6,2.2,1.6,2.8,2.8l57.7,123.1l306.4,653.5C10082.9,4004.2,10059.6,4068.7,10005.5,4094z"/>
	</g>
	<g>
		<g>
			<linearGradient id="SVGID_20_" gradientUnits="userSpaceOnUse" x1="9607.5166" y1="3845.125" x2="9723.3506" y2="3845.125">
				<stop  offset="0" style="stop-color:#86B940;stop-opacity:0.7"/>
				<stop  offset="0.1233" style="stop-color:#86B940;stop-opacity:0.737"/>
				<stop  offset="1" style="stop-color:#86B940"/>
			</linearGradient>
			<circle class="st20" cx="9665.4" cy="3845.1" r="57.9"/>
		</g>
		<linearGradient id="SVGID_21_" gradientUnits="userSpaceOnUse" x1="8663.5195" y1="3242.3215" x2="8784.9004" y2="3242.3215">
			<stop  offset="0" style="stop-color:#262262;stop-opacity:0.7"/>
			<stop  offset="7.665092e-02" style="stop-color:#282A69;stop-opacity:0.723"/>
			<stop  offset="0.3453" style="stop-color:#2E4383;stop-opacity:0.8036"/>
			<stop  offset="0.5969" style="stop-color:#315699;stop-opacity:0.8791"/>
			<stop  offset="0.8225" style="stop-color:#3361A9;stop-opacity:0.9468"/>
			<stop  offset="1" style="stop-color:#3366B0"/>
		</linearGradient>
		<circle class="st21" cx="8724.2" cy="3242.3" r="60.7"/>
		<g>
			
				<linearGradient id="SVGID_22_" gradientUnits="userSpaceOnUse" x1="3192.9395" y1="5492.75" x2="3308.7739" y2="5492.75" gradientTransform="matrix(-1 0 0 -1 13221.459 8807.25)">
				<stop  offset="0.1508" style="stop-color:#E53238"/>
				<stop  offset="1" style="stop-color:#E53238;stop-opacity:0.7"/>
			</linearGradient>
			<circle class="st22" cx="9970.6" cy="3314.5" r="57.9"/>
			<circle class="st7" cx="9968.7" cy="3314.5" r="39.5"/>
		</g>
		<g>
			<linearGradient id="SVGID_23_" gradientUnits="userSpaceOnUse" x1="8784.9004" y1="3937.75" x2="8900.7344" y2="3937.75">
				<stop  offset="0" style="stop-color:#F3AF1C;stop-opacity:0.6"/>
				<stop  offset="1" style="stop-color:#F3AF1C"/>
			</linearGradient>
			<circle class="st23" cx="8842.8" cy="3937.8" r="57.9"/>
			<circle class="st7" cx="8842.8" cy="3938.7" r="39.5"/>
		</g>
	</g>
	<g>
		<path class="st24" d="M9838,3362c6.1,0.4,11.7,2.3,16.7,5.8c5,3.5,8.9,8.3,11.9,14.3c3.6,7.4,4.6,14.7,3.2,21.9
			c-1.4,7.2-5.1,13.3-11,18.3l-8-16.8c2-2.5,3.2-5.2,3.4-8.2c0.3-2.9-0.3-5.9-1.7-8.8c-2.2-4.7-5.7-7.7-10.4-9.1
			c-4.7-1.3-9.7-0.7-15.2,1.9c-5.5,2.6-9.1,6.2-11,10.6c-1.9,4.5-1.7,9.1,0.6,13.8c1.4,2.9,3.3,5.2,5.8,6.8c2.5,1.6,5.3,2.5,8.5,2.4
			l8,16.8c-7.6,1.5-14.7,0.5-21.1-3c-6.4-3.4-11.4-8.9-15-16.3c-2.9-6.1-4.1-12.1-3.7-18.2c0.4-6.1,2.4-11.6,5.9-16.6
			c3.5-5,8.4-9,14.6-11.9C9825.7,3362.9,9831.9,3361.6,9838,3362z"/>
		<path class="st24" d="M9846.2,3502.3l17.4-24.3l-1.8-3.7l-23.6,11.3l-7.3-15.3l62.6-30l12.3,25.6c2.4,4.9,3.5,9.6,3.5,13.9
			c-0.1,4.3-1.2,8-3.4,11.2c-2.2,3.2-5.1,5.6-8.8,7.4c-4.2,2-8.4,2.6-12.8,1.8c-4.4-0.8-8.4-3.1-11.9-7.1l-17.9,26.3L9846.2,3502.3z
			 M9872.7,3469.2l4.5,9.5c1.3,2.8,3,4.6,5.1,5.3c2,0.7,4.3,0.5,6.8-0.7c2.4-1.1,3.9-2.7,4.6-4.8c0.7-2.1,0.4-4.5-1-7.3l-4.5-9.5
			L9872.7,3469.2z"/>
		<path class="st24" d="M9925.5,3538.6l-12.7,6.1l9.8,20.4l-11.8,5.6l-9.8-20.4l-13.7,6.6l11.1,23.1l-12.2,5.8l-18.4-38.4l62.6-30
			l18.4,38.4l-12.2,5.8L9925.5,3538.6z"/>
		<path class="st24" d="M9929.7,3648.3l-11.2-23.4l-12.9,1.5l-7.6-16l73.5-7.3l8.5,17.7l-51.8,52.6l-7.7-16.1L9929.7,3648.3z
			 M9939.6,3638.8l19.2-18.7l-26.6,3.3L9939.6,3638.8z"/>
		<path class="st24" d="M10024.7,3714.4l-12.2,5.8l-7.9-16.6l-50.4,24.1l-7.3-15.3l50.4-24.1l-7.9-16.6l12.2-5.8L10024.7,3714.4z"/>
		<path class="st24" d="M10044.7,3756.2l-62.6,30l-7.3-15.3l62.6-30L10044.7,3756.2z"/>
		<path class="st24" d="M10087.2,3845l-73.3,7.8l-9.1-19.1l52-52.2l7.8,16.2l-39.9,38.1l54.8-7L10087.2,3845z"/>
		<path class="st24" d="M10094.3,3891.3l-12.7,6.1l9.8,20.4l-11.8,5.6l-9.8-20.4l-13.7,6.6l11.1,23.1l-12.2,5.8l-18.4-38.4l62.6-30
			l18.4,38.4l-12.2,5.8L10094.3,3891.3z"/>
		<path class="st24" d="M10075.3,3976.9c-0.2-4.3,0.6-8.3,2.4-11.9s4.8-6.4,8.9-8.5l7.8,16.2c-2.2,1.3-3.6,3-4.2,4.9
			c-0.6,2-0.3,4,0.7,6.2c1.1,2.3,2.5,3.8,4.1,4.6c1.7,0.8,3.4,0.8,5.3-0.1c1.5-0.7,2.6-1.9,3.1-3.4c0.5-1.5,0.7-3.2,0.7-5
			c-0.1-1.8-0.4-4.3-0.9-7.5c-0.7-4.6-1-8.5-1-11.7c0-3.2,0.8-6.2,2.4-9.2c1.6-3,4.3-5.5,8.2-7.3c5.8-2.8,11.4-2.9,16.7-0.2
			c5.3,2.6,9.6,7.4,12.8,14.1c3.3,6.9,4.3,13.2,3,19.1c-1.3,5.8-4.8,10.3-10.5,13.4l-7.9-16.5c2-1.1,3.2-2.6,3.7-4.5
			c0.5-1.9,0.2-4-0.8-6.1c-0.9-1.8-2.1-3.1-3.6-3.8c-1.5-0.7-3.2-0.5-5,0.3c-2,1-3.1,2.7-3.4,5.1c-0.2,2.4,0,6,0.6,10.7
			c0.6,4.7,0.8,8.6,0.8,11.7c0,3.1-0.8,6.2-2.3,9.2c-1.5,3-4.1,5.4-7.9,7.2c-3.6,1.7-7.2,2.4-11,1.9c-3.8-0.4-7.4-1.9-10.7-4.6
			c-3.4-2.6-6.2-6.3-8.4-11C10076.8,3985.7,10075.6,3981.3,10075.3,3976.9z"/>
	</g>
</g>
<g>
	<rect x="2705.6" y="3285.9" class="st25" width="1536" height="1536"/>
	<g>
		<g>
			<linearGradient id="SVGID_24_" gradientUnits="userSpaceOnUse" x1="3678.8196" y1="3847.4648" x2="3835.8894" y2="3847.4648">
				<stop  offset="0" style="stop-color:#2CAAE2"/>
				<stop  offset="8.024669e-02" style="stop-color:#2FA3DC"/>
				<stop  offset="0.3563" style="stop-color:#378CCC"/>
				<stop  offset="0.6107" style="stop-color:#3B7DC0"/>
				<stop  offset="0.8334" style="stop-color:#3D74BA"/>
				<stop  offset="1" style="stop-color:#3D71B8"/>
			</linearGradient>
			<path class="st26" d="M3833.7,3848.1c0,3.2,0.6,6.3,1.7,9.1h-156.6v-19.4h157.1C3834.5,3840.9,3833.7,3844.4,3833.7,3848.1z"/>
			<linearGradient id="SVGID_25_" gradientUnits="userSpaceOnUse" x1="3172.7668" y1="4246.8984" x2="3320.8489" y2="4246.8984">
				<stop  offset="0" style="stop-color:#2CAAE2"/>
				<stop  offset="8.024669e-02" style="stop-color:#2FA3DC"/>
				<stop  offset="0.3563" style="stop-color:#378CCC"/>
				<stop  offset="0.6107" style="stop-color:#3B7DC0"/>
				<stop  offset="0.8334" style="stop-color:#3D74BA"/>
				<stop  offset="1" style="stop-color:#3D71B8"/>
			</linearGradient>
			<rect x="3172.8" y="4237.2" class="st27" width="148.1" height="19.4"/>
			<linearGradient id="SVGID_26_" gradientUnits="userSpaceOnUse" x1="3698.1426" y1="4187.7158" x2="3846.4587" y2="4187.7158">
				<stop  offset="0" style="stop-color:#2CAAE2"/>
				<stop  offset="8.024669e-02" style="stop-color:#2FA3DC"/>
				<stop  offset="0.3563" style="stop-color:#378CCC"/>
				<stop  offset="0.6107" style="stop-color:#3B7DC0"/>
				<stop  offset="0.8334" style="stop-color:#3D74BA"/>
				<stop  offset="1" style="stop-color:#3D71B8"/>
			</linearGradient>
			<rect x="3698.1" y="4178" class="st28" width="148.3" height="19.4"/>
			<linearGradient id="SVGID_27_" gradientUnits="userSpaceOnUse" x1="3104.1885" y1="3801.9504" x2="3590.1411" y2="3801.9504">
				<stop  offset="0" style="stop-color:#2CAAE2"/>
				<stop  offset="8.024669e-02" style="stop-color:#2FA3DC"/>
				<stop  offset="0.3563" style="stop-color:#378CCC"/>
				<stop  offset="0.6107" style="stop-color:#3B7DC0"/>
				<stop  offset="0.8334" style="stop-color:#3D74BA"/>
				<stop  offset="1" style="stop-color:#3D71B8"/>
			</linearGradient>
			<path class="st29" d="M3590.1,3839h-438.7l0,0.2h-47.2c5-3.7,9.1-7.3,12.3-10.9c19.9-21.8,10.1-41.1,0-52.5
				c-6.1-6.9-12.3-10.9-12.3-10.9h411.7C3556.9,3764.8,3590.1,3798,3590.1,3839L3590.1,3839z"/>
			<linearGradient id="SVGID_28_" gradientUnits="userSpaceOnUse" x1="3286.7842" y1="4106.6016" x2="3371.7993" y2="4106.6016">
				<stop  offset="0" style="stop-color:#2CAAE2"/>
				<stop  offset="8.024669e-02" style="stop-color:#2FA3DC"/>
				<stop  offset="0.3563" style="stop-color:#378CCC"/>
				<stop  offset="0.6107" style="stop-color:#3B7DC0"/>
				<stop  offset="0.8334" style="stop-color:#3D74BA"/>
				<stop  offset="1" style="stop-color:#3D71B8"/>
			</linearGradient>
			<path class="st30" d="M3286.8,4352L3286.8,4352v-405.7c0-47,38.1-85,85-85l0,0v405.7C3371.8,4313.9,3333.7,4352,3286.8,4352z"/>
			<linearGradient id="SVGID_29_" gradientUnits="userSpaceOnUse" x1="3435.3828" y1="4053.0154" x2="3922.2463" y2="4053.0154">
				<stop  offset="0" style="stop-color:#2CAAE2"/>
				<stop  offset="8.024669e-02" style="stop-color:#2FA3DC"/>
				<stop  offset="0.3563" style="stop-color:#378CCC"/>
				<stop  offset="0.6107" style="stop-color:#3B7DC0"/>
				<stop  offset="0.8334" style="stop-color:#3D74BA"/>
				<stop  offset="1" style="stop-color:#3D71B8"/>
			</linearGradient>
			<path class="st31" d="M3882.4,4346.2L3882.4,4346.2c-1.8,0.9-4,0.1-4.9-1.8L3683,3929.6c-1.3-2.8-5.4-2.8-6.7,0L3480.1,4348
				c-0.9,1.8-3.1,2.6-4.9,1.8l0,0c-34.6-16.2-49.5-57.4-33.2-92l197.5-421.2l36.9-78.7c0.4-0.8,1-1.4,1.7-1.7l0.1,0
				c1-0.5,2.1-0.5,3.1,0l0,0c0.8,0.4,1.4,1,1.8,1.8l36.9,78.7l195.8,417.5C3931.9,4288.8,3917,4329.9,3882.4,4346.2z"/>
		</g>
		<g>
			<path class="st32" d="M3736.7,3906.9c-1.9-3.9-4.4-6.9-7.6-9.2c-3.2-2.2-6.8-3.5-10.7-3.7c-3.9-0.2-7.9,0.6-11.8,2.5
				c-4,1.9-7.1,4.4-9.3,7.6s-3.5,6.7-3.8,10.6c-0.3,3.9,0.5,7.8,2.4,11.6c2.3,4.8,5.5,8.2,9.6,10.4c4.1,2.2,8.6,2.8,13.5,1.9
				l-5.1-10.7c-2.1,0-3.9-0.5-5.4-1.6c-1.6-1.1-2.8-2.5-3.7-4.4c-1.4-3-1.6-5.9-0.4-8.8c1.2-2.9,3.6-5.1,7-6.8
				c3.5-1.7,6.7-2.1,9.7-1.2c3,0.9,5.2,2.8,6.6,5.8c0.9,1.9,1.2,3.7,1.1,5.6c-0.2,1.9-0.9,3.6-2.2,5.2l5.1,10.7
				c3.8-3.2,6.1-7.1,7-11.7C3739.7,3916.4,3739,3911.7,3736.7,3906.9z"/>
			<path class="st32" d="M3761.8,3960.6l-7.8-16.4l-40,19.1l4.7,9.8l15.1-7.2l1.1,2.3l-11.1,15.6l5.3,11l11.4-16.8
				c2.3,2.5,4.8,4,7.6,4.5c2.8,0.5,5.5,0.1,8.2-1.2c2.4-1.1,4.2-2.7,5.6-4.7c1.4-2,2.1-4.4,2.2-7.2S3763.3,3963.7,3761.8,3960.6z
				 M3754,3968.5c-0.5,1.3-1.4,2.3-3,3.1c-1.6,0.8-3,0.9-4.3,0.4c-1.3-0.5-2.4-1.6-3.2-3.4l-2.9-6l9.9-4.8l2.9,6
				C3754.3,3965.7,3754.5,3967.2,3754,3968.5z"/>
			<path class="st32" d="M3777.5,3993.5l-40,19.1l11.7,24.5l7.8-3.7l-7.1-14.8l8.8-4.2l6.2,13.1l7.5-3.6l-6.2-13.1l8.1-3.9l7.1,14.8
				l7.8-3.7L3777.5,3993.5z"/>
			<path class="st32" d="M3803.7,4048.2l-46.9,4.7l4.9,10.2l8.2-1l7.1,14.9l-5.9,5.8l4.9,10.3l33.1-33.6L3803.7,4048.2z
				 M3783.4,4070.9l-4.7-9.9l17-2.1L3783.4,4070.9z"/>
			<path class="st32" d="M3822.9,4088.3l-7.8,3.7l5.1,10.6L3788,4118l4.7,9.8l32.2-15.4l5.1,10.6l7.8-3.7L3822.9,4088.3z"/>
			<path class="st32" d="M3845.9,4136.2l-40,19.1l4.7,9.8l40-19.1L3845.9,4136.2z"/>
			<path class="st32" d="M3872.7,4192.4l-26.3,3.4l-8.7,1.1l8.7-8.3l16.8-16l-5-10.4l-15.9,15.9l-17.4,17.4l0.9,1.9l4.9,10.2
				l46.8-4.9L3872.7,4192.4z"/>
			<path class="st32" d="M3885.4,4218.8l-40,19.1l11.7,24.5l7.8-3.7l-7.1-14.8l8.8-4.2l6.2,13.1l7.5-3.6l-6.2-13.1l8.1-3.9l7.1,14.8
				l7.8-3.7L3885.4,4218.8z"/>
			<path class="st32" d="M3913,4275c-2.1-4.3-4.8-7.3-8.2-9c-3.4-1.7-7-1.6-10.7,0.1c-2.5,1.2-4.3,2.8-5.3,4.7
				c-1,1.9-1.5,3.9-1.5,5.9c0,2,0.2,4.5,0.6,7.5c0.3,2,0.5,3.6,0.6,4.8c0,1.2-0.1,2.2-0.4,3.2c-0.3,1-1,1.7-2,2.2
				c-1.2,0.6-2.3,0.6-3.4,0.1c-1.1-0.5-1.9-1.5-2.6-2.9c-0.7-1.4-0.8-2.7-0.5-4c0.4-1.2,1.2-2.3,2.7-3.2l-5-10.4
				c-2.6,1.3-4.5,3.1-5.7,5.4c-1.2,2.3-1.7,4.8-1.6,7.6c0.2,2.8,0.9,5.6,2.3,8.6c1.4,3,3.2,5.3,5.4,7c2.2,1.7,4.4,2.6,6.9,2.9
				c2.4,0.3,4.8-0.1,7-1.2c2.4-1.1,4.1-2.7,5-4.6c0.9-1.9,1.4-3.9,1.5-5.9c0-2-0.2-4.5-0.5-7.5c-0.4-3-0.5-5.2-0.4-6.8
				c0.1-1.6,0.9-2.6,2.2-3.3c1.2-0.6,2.2-0.6,3.2-0.2c1,0.4,1.7,1.2,2.3,2.4c0.6,1.4,0.8,2.7,0.5,3.9c-0.3,1.2-1.1,2.2-2.4,2.9
				l5.1,10.5c3.7-2,5.9-4.8,6.7-8.5S3915.1,4279.5,3913,4275z"/>
		</g>
		<g>
			<g>
				<linearGradient id="SVGID_30_" gradientUnits="userSpaceOnUse" x1="3628.1367" y1="4187.1108" x2="3702.1492" y2="4187.1108">
					<stop  offset="0" style="stop-color:#86B940;stop-opacity:0.7"/>
					<stop  offset="0.1233" style="stop-color:#86B940;stop-opacity:0.737"/>
					<stop  offset="1" style="stop-color:#86B940"/>
				</linearGradient>
				<circle class="st33" cx="3665.1" cy="4187.1" r="37"/>
			</g>
			<linearGradient id="SVGID_31_" gradientUnits="userSpaceOnUse" x1="3024.9709" y1="3801.9504" x2="3102.5271" y2="3801.9504">
				<stop  offset="0" style="stop-color:#262262;stop-opacity:0.7"/>
				<stop  offset="7.665092e-02" style="stop-color:#282A69;stop-opacity:0.723"/>
				<stop  offset="0.3453" style="stop-color:#2E4383;stop-opacity:0.8036"/>
				<stop  offset="0.5969" style="stop-color:#315699;stop-opacity:0.8791"/>
				<stop  offset="0.8225" style="stop-color:#3361A9;stop-opacity:0.9468"/>
				<stop  offset="1" style="stop-color:#3366B0"/>
			</linearGradient>
			<circle class="st34" cx="3063.7" cy="3802" r="38.8"/>
			<g>
				<linearGradient id="SVGID_32_" gradientUnits="userSpaceOnUse" x1="3823.1194" y1="3848.0649" x2="3897.1394" y2="3848.0649">
					<stop  offset="0.1508" style="stop-color:#E53238"/>
					<stop  offset="1" style="stop-color:#E53238;stop-opacity:0.7"/>
				</linearGradient>
				<path class="st35" d="M3860.1,3811.1c-16.9,0-31.1,11.3-35.6,26.7c-0.9,3.3-1.5,6.7-1.5,10.3c0,3.1,0.4,6.2,1.1,9.1
					c4.1,16.1,18.6,27.9,35.9,27.9c20.4,0,37-16.6,37-37S3880.6,3811.1,3860.1,3811.1z M3858.9,3873.3c-10.8,0-19.9-6.7-23.6-16.2
					c-1.1-2.8-1.7-5.9-1.7-9.1c0-3.7,0.8-7.2,2.2-10.3c3.9-8.8,12.8-15,23.1-15c13.9,0,25.2,11.3,25.2,25.2
					C3884.2,3862,3872.9,3873.3,3858.9,3873.3z"/>
			</g>
			<g>
				<linearGradient id="SVGID_33_" gradientUnits="userSpaceOnUse" x1="3102.5295" y1="4246.2949" x2="3176.5396" y2="4246.2949">
					<stop  offset="0" style="stop-color:#F3AF1C;stop-opacity:0.6"/>
					<stop  offset="1" style="stop-color:#F3AF1C"/>
				</linearGradient>
				<path class="st36" d="M3175.4,4237.2c-4.1-16-18.6-27.9-35.9-27.9c-20.4,0-37,16.6-37,37c0,20.4,16.6,37,37,37
					c16.9,0,31.1-11.3,35.6-26.7c0.9-3.3,1.5-6.7,1.5-10.3C3176.5,4243.2,3176.1,4240.1,3175.4,4237.2z M3139.5,4272.1
					c-13.9,0-25.2-11.3-25.2-25.2c0-13.9,11.3-25.2,25.2-25.2c13.9,0,25.2,11.3,25.2,25.2
					C3164.8,4260.8,3153.5,4272.1,3139.5,4272.1z"/>
			</g>
		</g>
	</g>
</g>
<rect x="2705.6" y="4892.4" class="st37" width="1536" height="1536"/>
<path class="st38" d="M3829.3,5454.6c0,3.2,0.6,6.3,1.6,9.1h-152.2v-19.4h152.7C3830.1,5447.4,3829.3,5450.9,3829.3,5454.6z"/>
<rect x="3172.8" y="5843.7" class="st38" width="148.1" height="19.4"/>
<rect x="3698.1" y="5784.5" class="st38" width="148.3" height="19.4"/>
<path class="st38" d="M3590.1,5445.5h-438.7l0,0.2h-47.2c5-3.7,9.1-7.3,12.3-10.9c19.9-21.8,10.1-41.1,0-52.5
	c-6.1-6.9-12.3-10.9-12.3-10.9h411.7C3556.9,5371.3,3590.1,5404.5,3590.1,5445.5L3590.1,5445.5z"/>
<path class="st38" d="M3286.8,5958.5L3286.8,5958.5v-405.7c0-47,38.1-85,85-85l0,0v405.7C3371.8,5920.4,3333.7,5958.5,3286.8,5958.5
	z"/>
<path class="st38" d="M3882.4,5952.7L3882.4,5952.7c-1.8,0.9-4,0.1-4.9-1.8L3683,5536.1c-1.3-2.8-5.4-2.8-6.7,0l-196.2,418.4
	c-0.9,1.8-3.1,2.6-4.9,1.8l0,0c-34.6-16.2-49.5-57.4-33.2-92l197.5-421.2l36.9-78.7c0.4-0.8,1-1.4,1.7-1.7l0.1,0
	c1-0.5,2.1-0.5,3.1,0l0,0c0.8,0.4,1.4,1,1.8,1.8l36.9,78.7l195.8,417.5C3931.9,5895.3,3917,5936.4,3882.4,5952.7z"/>
<g>
	<g>
		<linearGradient id="SVGID_34_" gradientUnits="userSpaceOnUse" x1="3628.1367" y1="5793.6108" x2="3702.1492" y2="5793.6108">
			<stop  offset="0" style="stop-color:#86B940;stop-opacity:0.7"/>
			<stop  offset="0.1233" style="stop-color:#86B940;stop-opacity:0.737"/>
			<stop  offset="1" style="stop-color:#86B940"/>
		</linearGradient>
		<circle class="st39" cx="3665.1" cy="5793.6" r="37"/>
	</g>
	<linearGradient id="SVGID_35_" gradientUnits="userSpaceOnUse" x1="3024.9709" y1="5408.4502" x2="3102.5271" y2="5408.4502">
		<stop  offset="0" style="stop-color:#262262;stop-opacity:0.7"/>
		<stop  offset="7.665092e-02" style="stop-color:#282A69;stop-opacity:0.723"/>
		<stop  offset="0.3453" style="stop-color:#2E4383;stop-opacity:0.8036"/>
		<stop  offset="0.5969" style="stop-color:#315699;stop-opacity:0.8791"/>
		<stop  offset="0.8225" style="stop-color:#3361A9;stop-opacity:0.9468"/>
		<stop  offset="1" style="stop-color:#3366B0"/>
	</linearGradient>
	<circle class="st40" cx="3063.7" cy="5408.5" r="38.8"/>
	<g>
		<linearGradient id="SVGID_36_" gradientUnits="userSpaceOnUse" x1="3823.1194" y1="5454.5649" x2="3897.1394" y2="5454.5649">
			<stop  offset="0.1508" style="stop-color:#E53238"/>
			<stop  offset="1" style="stop-color:#E53238;stop-opacity:0.7"/>
		</linearGradient>
		<path class="st41" d="M3860.1,5417.6c-16.9,0-31.1,11.3-35.6,26.7c-0.9,3.3-1.5,6.7-1.5,10.3c0,3.1,0.4,6.2,1.1,9.1
			c4.1,16.1,18.6,27.9,35.9,27.9c20.4,0,37-16.6,37-37C3897.1,5434.1,3880.6,5417.6,3860.1,5417.6z M3858.9,5479.8
			c-10.8,0-19.9-6.7-23.6-16.2c-1.1-2.8-1.7-5.9-1.7-9.1c0-3.7,0.8-7.1,2.2-10.3c3.9-8.8,12.8-15,23.1-15
			c13.9,0,25.2,11.3,25.2,25.2C3884.2,5468.5,3872.9,5479.8,3858.9,5479.8z"/>
	</g>
	<g>
		<linearGradient id="SVGID_37_" gradientUnits="userSpaceOnUse" x1="3102.5295" y1="5852.7949" x2="3176.5396" y2="5852.7949">
			<stop  offset="0" style="stop-color:#F3AF1C;stop-opacity:0.6"/>
			<stop  offset="1" style="stop-color:#F3AF1C"/>
		</linearGradient>
		<path class="st42" d="M3175.4,5843.7c-4.1-16-18.6-27.9-35.9-27.9c-20.4,0-37,16.6-37,37c0,20.4,16.6,37,37,37
			c16.9,0,31.1-11.3,35.6-26.7c0.9-3.3,1.5-6.7,1.5-10.3C3176.5,5849.7,3176.1,5846.6,3175.4,5843.7z M3139.5,5878.6
			c-13.9,0-25.2-11.3-25.2-25.2c0-13.9,11.3-25.2,25.2-25.2c13.9,0,25.2,11.3,25.2,25.2C3164.8,5867.3,3153.5,5878.6,3139.5,5878.6z
			"/>
	</g>
</g>
<g>
	<g>
		<rect x="4417.3" y="3285.9" width="1536" height="1536"/>
	</g>
	
		<linearGradient id="SVGID_38_" gradientUnits="userSpaceOnUse" x1="7678.9795" y1="4959.7861" x2="7830.9575" y2="4959.7861" gradientTransform="matrix(-1 0 0 -1 13221.459 8807.25)">
		<stop  offset="0" style="stop-color:#2CAAE2"/>
		<stop  offset="8.024669e-02" style="stop-color:#2FA3DC"/>
		<stop  offset="0.3563" style="stop-color:#378CCC"/>
		<stop  offset="0.6107" style="stop-color:#3B7DC0"/>
		<stop  offset="0.8334" style="stop-color:#3D74BA"/>
		<stop  offset="1" style="stop-color:#3D71B8"/>
	</linearGradient>
	<polyline class="st43" points="5390.5,3837.8 5542.5,3837.8 5542.5,3857.1 5390.5,3857.1 	"/>
	<linearGradient id="SVGID_39_" gradientUnits="userSpaceOnUse" x1="4884.4536" y1="4246.8984" x2="5032.5356" y2="4246.8984">
		<stop  offset="0" style="stop-color:#2CAAE2"/>
		<stop  offset="8.024669e-02" style="stop-color:#2FA3DC"/>
		<stop  offset="0.3563" style="stop-color:#378CCC"/>
		<stop  offset="0.6107" style="stop-color:#3B7DC0"/>
		<stop  offset="0.8334" style="stop-color:#3D74BA"/>
		<stop  offset="1" style="stop-color:#3D71B8"/>
	</linearGradient>
	<polyline class="st44" points="5032.5,4256.6 4884.5,4256.6 4884.5,4237.2 5032.5,4237.2 	"/>
	<linearGradient id="SVGID_40_" gradientUnits="userSpaceOnUse" x1="5409.8296" y1="4187.7158" x2="5558.1455" y2="4187.7158">
		<stop  offset="0" style="stop-color:#2CAAE2"/>
		<stop  offset="8.024669e-02" style="stop-color:#2FA3DC"/>
		<stop  offset="0.3563" style="stop-color:#378CCC"/>
		<stop  offset="0.6107" style="stop-color:#3B7DC0"/>
		<stop  offset="0.8334" style="stop-color:#3D74BA"/>
		<stop  offset="1" style="stop-color:#3D71B8"/>
	</linearGradient>
	<polyline class="st45" points="5558.1,4197.4 5409.8,4197.4 5409.8,4178 5558.1,4178 	"/>
	<linearGradient id="SVGID_41_" gradientUnits="userSpaceOnUse" x1="4815.8755" y1="3801.9504" x2="5301.8281" y2="3801.9504">
		<stop  offset="0" style="stop-color:#2CAAE2"/>
		<stop  offset="8.024669e-02" style="stop-color:#2FA3DC"/>
		<stop  offset="0.3563" style="stop-color:#378CCC"/>
		<stop  offset="0.6107" style="stop-color:#3B7DC0"/>
		<stop  offset="0.8334" style="stop-color:#3D74BA"/>
		<stop  offset="1" style="stop-color:#3D71B8"/>
	</linearGradient>
	<path class="st46" d="M5301.8,3839h-438.7l0,0.2h-47.2c5-3.7,9.1-7.3,12.3-10.9c19.9-21.8,10.1-41.1,0-52.5
		c-6.1-6.9-12.3-10.9-12.3-10.9h411.7C5268.6,3764.8,5301.8,3798,5301.8,3839L5301.8,3839z"/>
	<linearGradient id="SVGID_42_" gradientUnits="userSpaceOnUse" x1="4998.4707" y1="4106.6016" x2="5083.4863" y2="4106.6016">
		<stop  offset="0" style="stop-color:#2CAAE2"/>
		<stop  offset="8.024669e-02" style="stop-color:#2FA3DC"/>
		<stop  offset="0.3563" style="stop-color:#378CCC"/>
		<stop  offset="0.6107" style="stop-color:#3B7DC0"/>
		<stop  offset="0.8334" style="stop-color:#3D74BA"/>
		<stop  offset="1" style="stop-color:#3D71B8"/>
	</linearGradient>
	<path class="st47" d="M4998.5,4352L4998.5,4352l0-405.7c0-47,38.1-85,85-85l0,0v405.7C5083.5,4313.9,5045.4,4352,4998.5,4352z"/>
	<linearGradient id="SVGID_43_" gradientUnits="userSpaceOnUse" x1="5147.0693" y1="4053.0154" x2="5633.9331" y2="4053.0154">
		<stop  offset="0" style="stop-color:#2CAAE2"/>
		<stop  offset="8.024669e-02" style="stop-color:#2FA3DC"/>
		<stop  offset="0.3563" style="stop-color:#378CCC"/>
		<stop  offset="0.6107" style="stop-color:#3B7DC0"/>
		<stop  offset="0.8334" style="stop-color:#3D74BA"/>
		<stop  offset="1" style="stop-color:#3D71B8"/>
	</linearGradient>
	<path class="st48" d="M5594.1,4346.2L5594.1,4346.2c-1.8,0.9-4,0.1-4.9-1.8l-194.5-414.8c-1.3-2.8-5.4-2.8-6.7,0L5191.8,4348
		c-0.9,1.8-3.1,2.6-4.9,1.8l0,0c-34.6-16.2-49.5-57.4-33.2-92l197.5-421.2l36.9-78.7c0.4-0.8,1-1.4,1.7-1.7l0.1,0
		c1-0.5,2.1-0.5,3.1,0l0,0c0.8,0.4,1.4,1,1.8,1.8l36.9,78.7l195.8,417.5C5643.6,4288.8,5628.7,4329.9,5594.1,4346.2z"/>
	<g>
		<path class="st32" d="M5430.2,3894.1c3.9,0.2,7.5,1.5,10.7,3.7c3.2,2.2,5.7,5.3,7.6,9.2c2.3,4.7,3,9.4,2.1,14
			c-0.9,4.6-3.2,8.5-7,11.7l-5.1-10.7c1.3-1.6,2-3.3,2.2-5.2c0.2-1.9-0.2-3.8-1.1-5.6c-1.4-3-3.6-4.9-6.6-5.8
			c-3-0.9-6.2-0.5-9.7,1.2c-3.5,1.7-5.8,3.9-7,6.8c-1.2,2.9-1.1,5.8,0.4,8.8c0.9,1.9,2.1,3.3,3.7,4.4c1.6,1,3.4,1.6,5.4,1.6
			l5.1,10.7c-4.9,0.9-9.4,0.3-13.5-1.9c-4.1-2.2-7.3-5.7-9.6-10.4c-1.9-3.9-2.7-7.8-2.4-11.6c0.3-3.9,1.5-7.4,3.8-10.6
			c2.3-3.2,5.4-5.7,9.3-7.6C5422.3,3894.7,5426.2,3893.9,5430.2,3894.1z"/>
		<path class="st32" d="M5435.4,3983.8l11.1-15.5l-1.1-2.3l-15.1,7.2l-4.7-9.7l40-19.1l7.8,16.4c1.5,3.2,2.2,6.1,2.2,8.9
			c0,2.8-0.8,5.1-2.1,7.2c-1.4,2-3.3,3.6-5.6,4.7c-2.7,1.3-5.4,1.7-8.2,1.2c-2.8-0.5-5.4-2-7.6-4.5l-11.4,16.8L5435.4,3983.8z
			 M5452.3,3962.6l2.9,6c0.9,1.8,1.9,2.9,3.2,3.4c1.3,0.5,2.8,0.3,4.3-0.4c1.5-0.7,2.5-1.7,3-3.1c0.4-1.3,0.2-2.9-0.6-4.6l-2.9-6
			L5452.3,3962.6z"/>
		<path class="st32" d="M5486.1,4006.9l-8.1,3.9l6.2,13.1l-7.5,3.6l-6.2-13.1l-8.8,4.2l7.1,14.8l-7.8,3.7l-11.7-24.5l40-19.1
			l11.7,24.5l-7.8,3.7L5486.1,4006.9z"/>
		<path class="st32" d="M5488.7,4077.1l-7.1-14.9l-8.2,1l-4.9-10.2l46.9-4.7l5.4,11.3l-33.1,33.6l-4.9-10.3L5488.7,4077.1z
			 M5495.1,4070.9l12.3-12l-17,2.1L5495.1,4070.9z"/>
		<path class="st32" d="M5549.4,4119.3l-7.8,3.7l-5.1-10.6l-32.2,15.4l-4.7-9.7l32.2-15.4l-5.1-10.6l7.8-3.7L5549.4,4119.3z"/>
		<path class="st32" d="M5562.2,4146l-40,19.1l-4.7-9.7l40-19.1L5562.2,4146z"/>
		<path class="st32" d="M5589.4,4202.7l-46.8,5l-5.8-12.2l33.2-33.3l5,10.4l-25.5,24.4l35-4.5L5589.4,4202.7z"/>
		<path class="st32" d="M5593.9,4232.3l-8.1,3.9l6.2,13.1l-7.5,3.6l-6.2-13.1l-8.8,4.2l7.1,14.8l-7.8,3.7l-11.7-24.5l40-19.1
			l11.7,24.5l-7.8,3.7L5593.9,4232.3z"/>
		<path class="st32" d="M5581.8,4287c-0.2-2.8,0.4-5.3,1.6-7.6c1.2-2.3,3.1-4.1,5.7-5.4l5,10.4c-1.4,0.9-2.3,1.9-2.7,3.2
			c-0.4,1.2-0.2,2.6,0.5,4c0.7,1.4,1.6,2.4,2.6,2.9c1.1,0.5,2.2,0.5,3.4-0.1c1-0.5,1.6-1.2,2-2.2c0.3-1,0.5-2,0.4-3.2
			c0-1.2-0.2-2.8-0.6-4.8c-0.4-3-0.6-5.5-0.6-7.5c0-2,0.5-4,1.5-5.9c1-1.9,2.7-3.5,5.3-4.7c3.7-1.8,7.3-1.8,10.7-0.1
			c3.4,1.7,6.1,4.7,8.2,9c2.1,4.4,2.8,8.5,1.9,12.2c-0.8,3.7-3.1,6.6-6.7,8.5l-5-10.5c1.3-0.7,2-1.7,2.4-2.9
			c0.3-1.2,0.2-2.5-0.5-3.9c-0.6-1.2-1.3-2-2.3-2.4c-1-0.4-2-0.4-3.2,0.2c-1.3,0.6-2,1.7-2.1,3.3c-0.1,1.6,0,3.8,0.4,6.8
			c0.4,3,0.5,5.5,0.5,7.5c0,2-0.5,3.9-1.5,5.9c-1,1.9-2.6,3.4-5,4.6c-2.3,1.1-4.6,1.5-7,1.2c-2.4-0.3-4.7-1.2-6.9-2.9
			c-2.2-1.7-4-4-5.4-7C5582.7,4292.6,5582,4289.8,5581.8,4287z"/>
	</g>
	<g>
		<g>
			<linearGradient id="SVGID_44_" gradientUnits="userSpaceOnUse" x1="5339.8237" y1="4187.1108" x2="5413.8359" y2="4187.1108">
				<stop  offset="0" style="stop-color:#86B940;stop-opacity:0.7"/>
				<stop  offset="0.1233" style="stop-color:#86B940;stop-opacity:0.737"/>
				<stop  offset="1" style="stop-color:#86B940"/>
			</linearGradient>
			<circle class="st49" cx="5376.8" cy="4187.1" r="37"/>
		</g>
		<linearGradient id="SVGID_45_" gradientUnits="userSpaceOnUse" x1="4736.6577" y1="3801.9504" x2="4814.2139" y2="3801.9504">
			<stop  offset="0" style="stop-color:#262262;stop-opacity:0.7"/>
			<stop  offset="7.665092e-02" style="stop-color:#282A69;stop-opacity:0.723"/>
			<stop  offset="0.3453" style="stop-color:#2E4383;stop-opacity:0.8036"/>
			<stop  offset="0.5969" style="stop-color:#315699;stop-opacity:0.8791"/>
			<stop  offset="0.8225" style="stop-color:#3361A9;stop-opacity:0.9468"/>
			<stop  offset="1" style="stop-color:#3366B0"/>
		</linearGradient>
		<circle class="st50" cx="4775.4" cy="3802" r="38.8"/>
		<g>
			<linearGradient id="SVGID_46_" gradientUnits="userSpaceOnUse" x1="5534.8096" y1="3848.0649" x2="5608.8193" y2="3848.0649">
				<stop  offset="0.1508" style="stop-color:#E53238"/>
				<stop  offset="1" style="stop-color:#E53238;stop-opacity:0.7"/>
			</linearGradient>
			<path class="st51" d="M5571.8,3811.1c-20.4,0-37,16.6-37,37s16.6,37,37,37s37-16.6,37-37S5592.3,3811.1,5571.8,3811.1z
				 M5570.6,3873.3c-13.9,0-25.2-11.3-25.2-25.2c0-13.9,11.3-25.2,25.2-25.2c13.9,0,25.2,11.3,25.2,25.2
				C5595.9,3862,5584.6,3873.3,5570.6,3873.3z"/>
		</g>
		<g>
			<linearGradient id="SVGID_47_" gradientUnits="userSpaceOnUse" x1="4814.2095" y1="4246.2949" x2="4888.2295" y2="4246.2949">
				<stop  offset="0" style="stop-color:#F3AF1C;stop-opacity:0.6"/>
				<stop  offset="1" style="stop-color:#F3AF1C"/>
			</linearGradient>
			<path class="st52" d="M4851.2,4209.3c-20.4,0-37,16.6-37,37c0,20.4,16.6,37,37,37c20.4,0,37-16.6,37-37
				C4888.2,4225.9,4871.7,4209.3,4851.2,4209.3z M4851.2,4272.1c-13.9,0-25.2-11.3-25.2-25.2c0-13.9,11.3-25.2,25.2-25.2
				c13.9,0,25.2,11.3,25.2,25.2C4876.5,4260.8,4865.2,4272.1,4851.2,4272.1z"/>
		</g>
	</g>
</g>
</svg>
